<?xml version="1.0" standalone="no"?><!DOCTYPE svg PUBLIC "-//W3C//DTD SVG 1.1//EN" "http://www.w3.org/Graphics/SVG/1.1/DTD/svg11.dtd"><svg t="1535448009715" class="icon" style="" viewBox="0 0 1024 1024" version="1.1" xmlns="http://www.w3.org/2000/svg" p-id="3306" xmlns:xlink="http://www.w3.org/1999/xlink" width="128" height="128"><defs><style type="text/css"></style></defs><path d="M644.266667 85.333333H273.066667C213.333333 85.333333 166.4 132.266667 166.4 192v640C166.4 891.733333 213.333333 938.666667 273.066667 938.666667h477.866666c59.733333 0 106.666667-46.933333 106.666667-106.666667V298.666667l-213.333333-213.333334z" fill="#30BF8F" p-id="3307"></path><path d="M699.733333 298.666667c-29.866667 0-55.466667-25.6-55.466666-55.466667V85.333333l213.333333 213.333334h-157.866667z" fill="#68E0B1" p-id="3308"></path><path d="M465.066667 759.466667c0 12.8 4.266667 21.333333 17.066666 25.6 8.533333 4.266667 21.333333 4.266667 29.866667 0 8.533333-4.266667 17.066667-17.066667 17.066667-25.6 0-12.8-4.266667-21.333333-17.066667-25.6-8.533333-4.266667-21.333333-4.266667-29.866667 0-12.8 4.266667-17.066667 12.8-17.066666 25.6z m0 0M512 320c-76.8 0-136.533333 59.733333-136.533333 136.533333 0 17.066667 12.8 25.6 25.6 25.6s25.6-12.8 25.6-25.6c0-46.933333 38.4-81.066667 81.066666-81.066666s81.066667 38.4 81.066667 81.066666c0 29.866667-21.333333 51.2-51.2 81.066667s-72.533333 68.266667-81.066667 136.533333c0 17.066667 8.533333 29.866667 25.6 29.866667h4.266667c12.8 0 25.6-8.533333 25.6-25.6 4.266667-46.933333 34.133333-72.533333 64-102.4s64-64 68.266667-119.466667c4.266667-76.8-55.466667-136.533333-132.266667-136.533333z m0 0" fill="#FFFFFF" p-id="3309"></path></svg>