<?xml version="1.0" standalone="no"?><!DOCTYPE svg PUBLIC "-//W3C//DTD SVG 1.1//EN" "http://www.w3.org/Graphics/SVG/1.1/DTD/svg11.dtd"><svg t="1535445028694" class="icon" style="" viewBox="0 0 1024 1024" version="1.1" xmlns="http://www.w3.org/2000/svg" p-id="2302" xmlns:xlink="http://www.w3.org/1999/xlink" width="64" height="64"><defs><style type="text/css"></style></defs><path d="M896 1024h-768A128 128 0 0 1 0 896v-768A128 128 0 0 1 128 0h768A128 128 0 0 1 1024 128v768a128 128 0 0 1-128 128zM128 51.2A76.8 76.8 0 0 0 51.2 128v768A76.8 76.8 0 0 0 128 972.8h768a76.8 76.8 0 0 0 76.8-76.8v-768A76.8 76.8 0 0 0 896 51.2z" fill="#8a8a8a" p-id="2303"></path><path d="M682.496 372.224A172.032 172.032 0 0 1 658.432 460.8a234.496 234.496 0 0 1-64 70.144 191.488 191.488 0 0 0-55.808 59.392 110.08 110.08 0 0 0-15.872 40.96v25.6H450.56v-36.864a129.536 129.536 0 0 1 17.92-65.024 272.896 272.896 0 0 1 61.952-68.608 145.92 145.92 0 0 0 44.032-51.2 133.632 133.632 0 0 0 11.776-51.2A98.304 98.304 0 0 0 563.2 307.2a92.16 92.16 0 0 0-68.096-24.064 98.816 98.816 0 0 0-74.24 31.232 143.872 143.872 0 0 0-30.208 102.4h-92.16a204.8 204.8 0 0 1 59.904-153.6 197.12 197.12 0 0 1 136.192-51.2 200.192 200.192 0 0 1 138.24 44.032 145.92 145.92 0 0 1 49.664 116.224z m-153.6 480.768H442.368v-88.576h88.064z" fill="#8a8a8a" p-id="2304"></path></svg>