<?xml version="1.0" standalone="no"?><!DOCTYPE svg PUBLIC "-//W3C//DTD SVG 1.1//EN" "http://www.w3.org/Graphics/SVG/1.1/DTD/svg11.dtd"><svg t="1535448311223" class="icon" style="" viewBox="0 0 1024 1024" version="1.1" xmlns="http://www.w3.org/2000/svg" p-id="5131" xmlns:xlink="http://www.w3.org/1999/xlink" width="128" height="128"><defs><style type="text/css"></style></defs><path d="M840.785723 272.290523 182.222693 272.290523c-30.230512 0-55.248302 24.973788-55.248302 55.295374l0 369.603873c0 30.792307 25.01779 55.765071 55.248302 55.765071l658.045237 0c30.746258 0 55.29742-24.972764 55.29742-55.295374L895.565351 327.584873C896.034025 297.263287 871.014188 272.290523 840.785723 272.290523L840.785723 272.290523zM559.570947 656.821363 463.438493 656.821363 463.438493 512.62217l-72.099085 92.282776-72.100108-92.282776 0 144.199193-96.133478 0L223.105822 368.422977l96.133478 0 72.100108 96.132454 72.099085-96.132454 96.132454 0L559.570947 656.821363 559.570947 656.821363zM703.299419 680.854732l-119.696126-168.232562 72.098062 0L655.701354 368.422977l96.132454 0 0 144.199193 72.099085 0L703.299419 680.854732 703.299419 680.854732z" p-id="5132" fill="#cb932e"></path></svg>