<svg width="40" height="40" viewBox="0 0 40 40" xmlns="http://www.w3.org/2000/svg" xmlns:xlink="http://www.w3.org/1999/xlink"><defs><rect id="a" x="8" y="3" width="27" height="34" rx="1"/></defs><g fill="none" fill-rule="evenodd"><path d="M0 0h40v40H0z"/><g><use fill="#FFF" xlink:href="#a"/><rect stroke="#E0E0E0" x="8.5" y="3.5" width="26" height="33" rx="1"/></g><path d="M12 12h19v2H12v-2zm0 4h19v2H12v-2zm0 4h19v2H12v-2zm0 4h19v2H12v-2zm0 4h19v2H12v-2z" fill="#E5E5E5"/><path d="M5.876 11.89l14-1.75a1 1 0 0 1 1.124.993v20.734a1 1 0 0 1-1.124.992l-14-1.75A1 1 0 0 1 5 30.117V12.883a1 1 0 0 1 .876-.992z" fill="#3A74D1"/><path fill="#FFF" d="M14.997 22.65l1.363-5.371 1.76-.159-2.347 9.389-1.613-.142-1.32-5.293-1.32 5.065-1.613-.137-1.867-7.97 1.76-.145.883 4.702 1.277-4.925 1.76-.152z"/></g></svg>
