<svg width="24" height="24" viewBox="0 0 24 24" xmlns="http://www.w3.org/2000/svg" xmlns:xlink="http://www.w3.org/1999/xlink"><defs><path d="M6 2h14a1 1 0 0 1 1 1v18a1 1 0 0 1-1 1H6a1 1 0 0 1-1-1V3a1 1 0 0 1 1-1z" id="a"/></defs><g fill="none" fill-rule="evenodd"><path d="M0 0h24v24H0z"/><use fill="#FFF" xlink:href="#a"/><path stroke="#DADADA" d="M6 2.5a.5.5 0 0 0-.5.5v18a.5.5 0 0 0 .5.5h14a.5.5 0 0 0 .5-.5V3a.5.5 0 0 0-.5-.5H6z"/><path d="M14 7v3h3a3 3 0 1 1-3-3zm1-1a3 3 0 0 1 3 3h-3V6zm-8 9h11v1H7v-1zm0 2h11v1H7v-1z" fill="#E5E5E5"/><path d="M3.45 6.955l9-.9a.5.5 0 0 1 .55.497v12.896a.5.5 0 0 1-.55.497l-9-.9a.5.5 0 0 1-.45-.497V7.452a.5.5 0 0 1 .45-.497z" fill="#E8673A"/><path fill="#FFF" d="M5 11h1v5H5zM6 10h2v1H6z"/><path fill="#FFF" opacity=".9" d="M8 10h1v1H8zM8 13h1v1H8z"/><path fill="#FFF" opacity=".6" d="M9 13h1v1H9zM9 10h1v1H9z"/><path fill="#FFF" opacity=".2" d="M8 11h1v1H8zM8 12h1v1H8z"/><path fill="#FFF" opacity=".9" d="M5 10h1v1H5zM9 11h1v1H9zM9 12h1v1H9z"/><path fill="#FFF" d="M6 13h2v1H6z"/></g></svg>
