<svg width="40" height="40" viewBox="0 0 40 40" xmlns="http://www.w3.org/2000/svg" xmlns:xlink="http://www.w3.org/1999/xlink"><defs><rect id="a" x="5" y="3" width="30" height="34" rx="1"/></defs><g fill="none" fill-rule="evenodd"><path d="M0 0h40v40H0z"/><g><use fill="#FFF" xlink:href="#a"/><rect stroke="#E0E0E0" x="5.5" y="3.5" width="29" height="33" rx="1"/></g><path d="M17.877 25.118c-.492.928-1.086 1.897-1.5 2.413-1.364 1.915-3.634 2.73-4.505 1.042-.67-1.298.113-2.634 1.575-3.522.296-.185 1.804-.773 3.148-1.282.22-.44.382-.815.428-1.018l.013-.056.02-.055c.67-1.805 1.58-4.587 1.721-5.33.015-.077.06-.257.116-.474-.843-1.875-1.51-3.665-1.51-4.397 0-2.614 3.098-2.851 3.861-.475.233.726.201 1.634-.014 2.767-.079.415-.18.846-.308 1.335l-.166.61c.874 1.865 1.88 3.76 2.4 4.436.12.12.241.236.362.35 1.796-.493 3.026-.695 3.6-.532 2.361.67 1.952 4.395-.467 4.395-.855 0-1.794-.486-2.88-1.32a16.35 16.35 0 0 1-.701-.572c-1.64.486-3.57 1.116-5.193 1.685zm2.182-5.85a82.302 82.302 0 0 1-1.239 3.675 115.352 115.352 0 0 1 2.817-.925c-.417-.59-.989-1.598-1.578-2.75zm-.49-6.766c-.183-.568-.426-.549-.426-.063 0 .262.166.809.434 1.51.092-.644.09-1.14-.009-1.447zM14.443 26.5l-.04.031-.044.026c-.71.431-1.008.875-.948 1.143.05-.004.12-.02.209-.052.418-.151.918-.563 1.335-1.155l.037-.048c.073-.09.157-.205.248-.336-.407.17-.688.306-.797.39zm12.207-2.934c.333 0 .423-.818-.013-.942-.172-.049-.711.045-1.473.232.613.443 1.136.71 1.486.71z" fill="#F55" fill-rule="nonzero"/></g></svg>
