<?xml version="1.0" standalone="no"?><!DOCTYPE svg PUBLIC "-//W3C//DTD SVG 1.1//EN" "http://www.w3.org/Graphics/SVG/1.1/DTD/svg11.dtd"><svg t="1538120592128" class="icon" style="" viewBox="0 0 1243 1024" version="1.1" xmlns="http://www.w3.org/2000/svg" p-id="5942" xmlns:xlink="http://www.w3.org/1999/xlink" width="155.375" height="128"><defs><style type="text/css"></style></defs><path d="M324.070481 8.136961C275.34014-1.462824 256.049142 1.974813 244.108837 37.119171h226.774366L324.070481 8.136961zM1004.04616 867.089217V162.592942c0-64.181425-11.812308-78.26111-75.280606-78.26111H75.298891C13.037423 84.313547 0 95.504154 0 162.574657V867.089217c0 65.735676 12.799714 78.26111 75.298891 78.26111h853.448378c61.987188 0 75.298891-12.013446 75.298891-78.26111zM753.062048 222.897882c51.198857 0 92.615076 43.025325 92.615075 96.253851 0 53.210241-41.434504 96.253851-92.615075 96.253852-51.198857 0-92.633361-43.043611-92.633361-96.253852 0-53.228526 41.434504-96.253851 92.633361-96.253851zM118.744778 762.716689c83.838129-127.082878 232.936515-338.95472 270.805384-338.954719 36.680324 0 161.166688 171.205321 217.41229 231.437119 0 0 72.3001-100.441187 110.187254-100.441186 38.636852 0 167.420263 206.898239 168.663664 207.958786H118.744778zM1162.561479 173.527555l-114.941435-22.673779c0.054856 2.907364 0.091427 5.796442 0.091427 8.630664V868.003482c0 32.87698-2.10281 70.069293-27.098824 95.540725-24.319457 24.77659-59.555242 26.8794-90.676833 26.8794h-69.30131l147.452708 29.073636c60.908355 12.013446 76.140015 2.797652 88.025464-62.316323l126.351465-692.098837c11.556313-63.084306 2.468516-79.211946-59.902662-91.517957z" fill="#FF6A3C" p-id="5943"></path></svg>