<?xml version="1.0" standalone="no"?><!DOCTYPE svg PUBLIC "-//W3C//DTD SVG 1.1//EN" "http://www.w3.org/Graphics/SVG/1.1/DTD/svg11.dtd"><svg t="1542349761807" class="icon" style="" viewBox="0 0 1024 1024" version="1.1" xmlns="http://www.w3.org/2000/svg" p-id="1929" xmlns:xlink="http://www.w3.org/1999/xlink" width="32" height="32"><defs><style type="text/css"></style></defs><path d="M109.014354 0C89.416268 0 69.818182 19.598086 69.818182 39.196172v945.607656c0 19.598086 19.598086 39.196172 39.196172 39.196172h805.971292c19.598086 0 39.196172-19.598086 39.196172-39.196172V222.92823L728.803828 0H109.014354z" fill="#FC4949" p-id="1930"></path><path d="M728.803828 0v183.732057c0 19.598086 19.598086 39.196172 39.196172 39.196173H951.732057L728.803828 0z" fill="#FC8D8D" p-id="1931"></path><path d="M231.502392 448.30622s-4.899522-12.248804 12.248804-14.698564l146.985646-26.947369s12.248804-7.349282 17.148325 9.799043c4.899522 17.148325 34.296651 115.138756 127.38756 112.688995 93.090909-2.449761 48.995215-80.842105 48.995216-80.842105s-2.449761-9.799043 19.598086-17.148325c22.047847-4.899522 112.688995-19.598086 112.688995-19.598086s22.047847-9.799043 29.397129 17.148325c4.899522 26.947368 17.148325 80.842105-80.842105 110.239234-85.741627 24.497608 31.84689 26.947368 112.688995 102.889953 36.746411 36.746411 44.095694 66.143541 41.645933 80.842105-2.449761 19.598086-22.047847 14.698565-29.397129 17.148325-2.449761 0-4.899522 0-9.799043 2.449761-29.397129 4.899522-120.038278 19.598086-120.038278 19.598086s-17.148325 4.899522-24.497607-26.947368c-7.349282-31.84689-58.794258-102.889952-144.535886-105.339713-85.741627-2.449761-90.641148 73.492823-93.090909 95.54067-2.449761 22.047847-9.799043 19.598086-24.497607 22.047846s-107.789474 24.497608-107.789474 24.497608-17.148325 7.349282-19.598086-14.698564c0-22.047847-17.148325-73.492823 102.889952-124.937799 80.842105-34.296651 68.593301-36.746411 39.196172-51.444977-31.84689-14.698565-144.535885-41.645933-156.784689-132.287081z" fill="#FFFFFF" p-id="1932"></path></svg>