<?xml version="1.0" standalone="no"?><!DOCTYPE svg PUBLIC "-//W3C//DTD SVG 1.1//EN" "http://www.w3.org/Graphics/SVG/1.1/DTD/svg11.dtd"><svg t="1542350088851" class="icon" style="" viewBox="0 0 1024 1024" version="1.1" xmlns="http://www.w3.org/2000/svg" p-id="8186" xmlns:xlink="http://www.w3.org/1999/xlink" width="32" height="32"><defs><style type="text/css"></style></defs><path d="M706.133333 96H192c-34.133333 0-64 27.733333-64 64v706.133333c0 34.133333 27.733333 64 64 64h640c34.133333 0 64-27.733333 64-64V285.866667l-189.866667-189.866667z m-27.733333 305.066667h-140.8v307.2c0 14.933333-10.666667 25.6-25.6 25.6s-25.6-10.666667-25.6-25.6V401.066667h-140.8c-14.933333 0-25.6-10.666667-25.6-25.6s10.666667-25.6 25.6-25.6h332.8c14.933333 0 25.6 10.666667 25.6 25.6s-10.666667 25.6-25.6 25.6z" fill="#5CBFDE" p-id="8187"></path></svg>