<?xml version="1.0" standalone="no"?><!DOCTYPE svg PUBLIC "-//W3C//DTD SVG 1.1//EN" "http://www.w3.org/Graphics/SVG/1.1/DTD/svg11.dtd"><svg t="1534489372667" class="icon" style="" viewBox="0 0 1024 1024" version="1.1" xmlns="http://www.w3.org/2000/svg" p-id="5435" xmlns:xlink="http://www.w3.org/1999/xlink" width="64" height="64"><defs><style type="text/css"></style></defs><path d="M76.8 76.8v307.2h307.2V76.8H76.8zM0 51.072C0 22.8608 22.8608 0 51.072 0h358.656C437.9392 0 460.8 22.8608 460.8 51.072v358.656A51.072 51.072 0 0 1 409.728 460.8H51.072A51.072 51.072 0 0 1 0 409.728V51.072zM76.8 640v307.2h307.2V640H76.8z m-76.8-25.728C0 586.0608 22.8608 563.2 51.072 563.2h358.656c28.2112 0 51.072 22.8608 51.072 51.072v358.656A51.072 51.072 0 0 1 409.728 1024H51.072A51.072 51.072 0 0 1 0 972.928v-358.656zM640 76.8v307.2h307.2V76.8H640z m-76.8-25.728C563.2 22.8608 586.0608 0 614.272 0h358.656C1001.1392 0 1024 22.8608 1024 51.072v358.656A51.072 51.072 0 0 1 972.928 460.8h-358.656A51.072 51.072 0 0 1 563.2 409.728V51.072zM640 640v307.2h307.2V640H640z m-76.8-25.728c0-28.2112 22.8608-51.072 51.072-51.072h358.656c28.2112 0 51.072 22.8608 51.072 51.072v358.656A51.072 51.072 0 0 1 972.928 1024h-358.656A51.072 51.072 0 0 1 563.2 972.928v-358.656z" fill="#8a8a8a" p-id="5436"></path></svg>