<?xml version="1.0" standalone="no"?><!DOCTYPE svg PUBLIC "-//W3C//DTD SVG 1.1//EN" "http://www.w3.org/Graphics/SVG/1.1/DTD/svg11.dtd"><svg t="1534210090391" class="icon" style="" viewBox="0 0 1024 1024" version="1.1" xmlns="http://www.w3.org/2000/svg" p-id="5702" xmlns:xlink="http://www.w3.org/1999/xlink" width="128" height="128"><defs><style type="text/css"></style></defs><path d="M37.488 308.368l459.936 250.656c4.624 2.512 9.712 3.776 14.832 3.776 5.056 0 10.096-1.232 14.704-3.728l464.768-250.64c10.128-5.44 16.432-16.112 16.272-27.632-0.144-11.568-6.688-22.048-16.944-27.28L531.088 19.76c-8.768-4.448-19.12-4.48-27.952-0.064L38.384 253.456c-10.288 5.168-16.88 15.648-17.056 27.184C21.152 292.176 27.376 302.864 37.488 308.368zM516.992 82.128l393.2 199.84-397.856 214.56L119.104 282.24 516.992 82.128zM985.728 481.296l-91.936-46.72L827.424 470.4l77.456 39.36L507.008 724.32 113.776 510.032l82.592-41.536-66.192-36.096-97.12 48.832C22.784 486.416 16.192 496.896 16 508.432c-0.176 11.536 6.048 22.224 16.16 27.728l459.936 250.656c4.624 2.512 9.712 3.792 14.816 3.792 5.056 0 10.112-1.248 14.704-3.728L986.4 536.224c10.144-5.456 16.432-16.112 16.272-27.648C1002.512 497.008 995.984 486.528 985.728 481.296zM985.728 698.304l-87.104-42.832-66.368 35.808 72.608 35.488-397.856 214.56L113.776 727.04l76.784-34.752-66.192-36.096L33.072 698.24C22.784 703.424 16.192 713.904 16 725.44c-0.176 11.536 6.048 22.224 16.16 27.728l459.936 250.656c4.624 2.512 9.712 3.792 14.816 3.792 5.056 0 10.112-1.248 14.704-3.728L986.4 753.232c10.144-5.456 16.432-16.112 16.272-27.648C1002.512 714.016 995.984 703.552 985.728 698.304z" p-id="5703" fill="#31ba78"></path></svg>