<?xml version="1.0" standalone="no"?><!DOCTYPE svg PUBLIC "-//W3C//DTD SVG 1.1//EN" "http://www.w3.org/Graphics/SVG/1.1/DTD/svg11.dtd"><svg t="1543196197213" class="icon" style="" viewBox="0 0 1024 1024" version="1.1" xmlns="http://www.w3.org/2000/svg" p-id="13097" xmlns:xlink="http://www.w3.org/1999/xlink" width="32" height="32"><defs><style type="text/css"></style></defs><path d="M510.976 64c-246.784 0-446.464 199.68-446.464 446.464s199.68 446.464 446.464 446.464 446.464-199.68 446.464-446.464v-0.512c0-245.76-199.68-445.952-446.464-445.952zM365.056 650.24c-5.12 0-10.24-1.536-14.848-4.096l-148.48-91.648-2.56-2.048c-23.04-23.04-23.04-60.416 0-83.456l2.56-2.048 148.48-91.648c13.312-8.192 30.208-4.096 38.4 9.216 8.192 13.312 4.096 30.208-9.216 38.4l-141.312 87.04v1.536l141.312 87.04c13.312 8.192 17.408 25.088 9.216 38.4-5.12 8.704-14.336 13.312-23.552 13.312z m81.408 107.52c-4.096 11.264-14.848 17.92-26.112 17.92-3.072 0-6.656-0.512-9.728-2.048-14.336-5.632-21.504-21.504-15.872-35.84l181.248-474.624c5.632-14.336 21.504-21.504 35.84-15.872s21.504 21.504 15.872 35.84L446.464 757.76z m375.808-205.312l-2.56 2.048-148.48 91.648c-4.608 2.56-9.216 4.096-14.848 4.096-9.216 0-18.432-4.608-23.552-13.312-8.192-13.312-4.096-30.208 9.216-38.4l141.312-87.04v-1.536l-141.312-87.04c-13.312-8.192-17.408-25.088-9.216-38.4 8.192-13.312 25.088-17.408 38.4-9.216l148.48 91.648 2.56 2.048c23.04 23.04 23.04 60.416 0 83.456z" fill="#76C2AF" p-id="13098"></path></svg>