<?xml version="1.0" standalone="no"?><!DOCTYPE svg PUBLIC "-//W3C//DTD SVG 1.1//EN" "http://www.w3.org/Graphics/SVG/1.1/DTD/svg11.dtd"><svg t="1547109478607" class="icon" style="" viewBox="0 0 1024 1024" version="1.1" xmlns="http://www.w3.org/2000/svg" p-id="7018" xmlns:xlink="http://www.w3.org/1999/xlink" width="200" height="200"><defs><style type="text/css"></style></defs><path d="M508.704 65.582c-248.312 0-449.61 201.297-449.61 449.61s201.298 449.61 449.61 449.61 449.61-201.298 449.61-449.61-201.297-449.61-449.61-449.61z m208.37 389.75c-0.937 3.942-3.241 9.718-6.475 16.693h0.072l-0.372 0.646c-18.868 40.372-68.134 119.55-68.134 119.55s-0.067-0.185-0.257-0.496l-14.397 25.062h69.382l-132.512 176.21 30.083-119.872h-54.596l18.969-79.269c-15.35 3.703-33.485 8.79-54.974 15.699 0 0-29.062 17.022-83.724-32.744 0 0-36.863-32.475-15.489-40.593 9.091-3.451 44.131-7.832 71.704-11.558 37.26-5.038 60.182-7.705 60.182-7.705s-114.873 1.72-142.124-2.57c-27.255-4.284-61.827-49.76-69.19-89.735 0 0-11.39-21.948 24.49-11.559 35.879 10.39 184.407 40.443 184.407 40.443s-193.163-59.208-206.015-73.653c-12.855-14.446-37.83-78.866-34.578-118.448 0 0 1.41-9.867 11.529-7.225 0 0 142.802 65.254 240.447 100.975 97.646 35.722 182.54 53.895 171.572 100.15z" fill="#333333" p-id="7019"></path></svg>