<?xml version="1.0" standalone="no"?><!DOCTYPE svg PUBLIC "-//W3C//DTD SVG 1.1//EN" "http://www.w3.org/Graphics/SVG/1.1/DTD/svg11.dtd"><svg t="1534210364032" class="icon" style="" viewBox="0 0 1024 1024" version="1.1" xmlns="http://www.w3.org/2000/svg" p-id="6434" xmlns:xlink="http://www.w3.org/1999/xlink" width="128" height="128"><defs><style type="text/css"></style></defs><path d="M613.956193 214.22483l0-42.457207L613.956193 0 115.817674 0 115.817674 1024l788.70169 0L904.519364 214.22483 613.956193 214.22483zM738.482685 851.433869 281.868594 851.433869l0-42.460258 456.615108 0L738.483702 851.433869zM738.482685 681.594869 281.868594 681.594869 281.868594 639.144783l456.615108 0L738.483702 681.594869zM738.482685 511.434433 281.868594 511.434433l0-42.457207 456.615108 0L738.483702 511.434433zM738.482685 341.60764 281.868594 341.60764l0-42.469413 456.615108 0L738.483702 341.60764zM683.512813 0l-28.062709 0 0 171.767624 247.65941 0L683.512813 0z" p-id="6435" fill="#31ba78"></path></svg>