<?xml version="1.0" standalone="no"?><!DOCTYPE svg PUBLIC "-//W3C//DTD SVG 1.1//EN" "http://www.w3.org/Graphics/SVG/1.1/DTD/svg11.dtd"><svg t="1534303467716" class="icon" style="" viewBox="0 0 1024 1024" version="1.1" xmlns="http://www.w3.org/2000/svg" p-id="2789" xmlns:xlink="http://www.w3.org/1999/xlink" width="128" height="128"><defs><style type="text/css"></style></defs><path d="M512 192c-223.31392 0-416.89088 130.048-512 320 95.10912 189.952 288.68608 320 512 320s416.8704-130.048 512-320c-95.10912-189.952-288.68608-320-512-320zM764.45696 361.69728c60.17024 38.37952 111.14496 89.76384 149.44256 150.30272-38.2976 60.5184-89.27232 111.9232-149.44256 150.30272-75.59168 48.20992-162.89792 73.70752-252.45696 73.70752s-176.86528-25.47712-252.45696-73.70752c-60.14976-38.37952-111.14496-89.76384-149.42208-150.30272 38.2976-60.5184 89.27232-111.9232 149.44256-150.30272 3.91168-2.49856 7.8848-4.9152 11.85792-7.29088-9.95328 27.32032-15.40096 56.832-15.40096 87.59296 0 141.37344 114.60608 256 256 256s256-114.62656 256-256c0-30.78144-5.44768-60.27264-15.40096-87.59296 3.97312 2.37568 7.94624 4.79232 11.85792 7.31136l0 0zM512 416.01024c0 53.02272-42.98752 96.01024-96.01024 96.01024s-96.01024-42.98752-96.01024-96.01024 42.98752-96.01024 96.01024-96.01024 96.01024 42.98752 96.01024 96.01024z" p-id="2790"></path></svg>