<svg width="1024" height="1025" xmlns="http://www.w3.org/2000/svg" class="icon">
  <g>
    <title>Layer 1</title>
    <path d="M966.8023 568.849776 57.196677 568.849776c-31.397081 0-56.850799-25.452695-56.850799-56.850799l0 0c0-31.397081 25.452695-56.849776 56.850799-56.849776l909.605623 0c31.397081 0 56.849776 25.452695 56.849776 56.849776l0 0C1023.653099 543.397081 998.200404 568.849776 966.8023 568.849776z" id="1692"/>
    <path d="M966.8023 881.527125 57.196677 881.527125c-31.397081 0-56.850799-25.452695-56.850799-56.849776l0 0c0-31.397081 25.452695-56.849776 56.850799-56.849776l909.605623 0c31.397081 0 56.849776 25.452695 56.849776 56.849776l0 0C1023.653099 856.07443 998.200404 881.527125 966.8023 881.527125z" id="1693"/>
    <path d="M966.8023 256.17345 57.196677 256.17345c-31.397081 0-56.850799-25.452695-56.850799-56.849776l0 0c0-31.397081 25.452695-56.850799 56.850799-56.850799l909.605623 0c31.397081 0 56.849776 25.452695 56.849776 56.850799l0 0C1023.653099 230.720755 998.200404 256.17345 966.8023 256.17345z" id="1694"/>
  </g>
</svg>
