<?xml version="1.0" standalone="no"?><!DOCTYPE svg PUBLIC "-//W3C//DTD SVG 1.1//EN" "http://www.w3.org/Graphics/SVG/1.1/DTD/svg11.dtd"><svg t="1534489998686" class="icon" style="" viewBox="0 0 1024 1024" version="1.1" xmlns="http://www.w3.org/2000/svg" p-id="9147" xmlns:xlink="http://www.w3.org/1999/xlink" width="64" height="64"><defs><style type="text/css"></style></defs><path d="M109 64h806c24.9 0 45 20.1 45 45v38c0 24.9-20.1 45-45 45H109c-24.9 0-45-20.1-45-45v-38c0-24.9 20.1-45 45-45zM109 320h806c24.9 0 45 20.1 45 45v38c0 24.9-20.1 45-45 45H109c-24.9 0-45-20.1-45-45v-38c0-24.9 20.1-45 45-45zM109 576h806c24.9 0 45 20.1 45 45v38c0 24.9-20.1 45-45 45H109c-24.9 0-45-20.1-45-45v-38c0-24.9 20.1-45 45-45zM109 832h806c24.9 0 45 20.1 45 45v38c0 24.9-20.1 45-45 45H109c-24.9 0-45-20.1-45-45v-38c0-24.9 20.1-45 45-45z" p-id="9148" fill="#707070"></path></svg>