<?xml version="1.0" standalone="no"?><!DOCTYPE svg PUBLIC "-//W3C//DTD SVG 1.1//EN" "http://www.w3.org/Graphics/SVG/1.1/DTD/svg11.dtd"><svg t="1534489229661" class="icon" style="" viewBox="0 0 1024 1024" version="1.1" xmlns="http://www.w3.org/2000/svg" p-id="3373" xmlns:xlink="http://www.w3.org/1999/xlink" width="64" height="64"><defs><style type="text/css"></style></defs><path d="M625.47437 132.538469v66.951901h309.968593v43.248198H625.47437v69.771062h309.968593v43.248197H625.47437v68.355161h309.968593v43.248197H625.47437v68.367803h309.968593v43.235555H625.47437v68.367803h309.968593v43.235555H625.47437v68.355161h309.968593v43.248197H625.47437v89.27763H1024V132.538469H625.47437zM0 108.809481v806.368396L577.042963 1024V0L0 108.809481zM161.893136 312.50963h84.410469l53.968593 238.554074 67.811555-238.554074h58.127803l83.019851 351.560691h-83.019851l-33.21047-219.022222-55.346567 241.34795h-87.179062L203.409383 422.72237l-49.809383 263.661037H70.580148l91.312988-373.873777z" fill="#cb932e" p-id="3374"></path></svg>