<?xml version="1.0" standalone="no"?><!DOCTYPE svg PUBLIC "-//W3C//DTD SVG 1.1//EN" "http://www.w3.org/Graphics/SVG/1.1/DTD/svg11.dtd"><svg t="1537167146776" class="icon" style="" viewBox="0 0 1024 1024" version="1.1" xmlns="http://www.w3.org/2000/svg" p-id="959" xmlns:xlink="http://www.w3.org/1999/xlink" width="128" height="128"><defs><style type="text/css"></style></defs><path d="M205.824 845.312c0 41.984 34.304 76.288 76.288 76.288h459.264c41.984 0 76.288-34.304 76.288-76.288V331.776H205.824v513.536z m119.808-321.536l90.624-52.224c5.632-3.072 11.264-3.072 16.896 0 5.632 3.072 8.192 8.192 8.192 14.336v29.184H599.04c61.952 0 112.128 50.176 112.128 112.128 0 12.8-10.24 23.04-23.04 23.04h-2.048c-12.8 0-23.04-10.24-23.04-23.04 0-34.816-28.672-63.488-63.488-63.488H441.344v27.648c0 6.144-3.072 11.264-8.192 14.336-2.56 1.536-5.632 2.048-8.192 2.048s-6.144-0.512-8.192-2.048l-90.624-52.224c-5.632-3.072-8.192-8.192-8.192-14.336 0.512-6.656 2.56-12.8 7.68-15.36z m10.24 79.872h1.536c12.8 0 23.04 10.24 23.04 23.04 0 34.816 28.672 63.488 63.488 63.488h158.208v-27.648c0-6.144 3.072-11.264 8.192-14.336 5.632-3.072 11.264-3.072 16.896 0l90.624 52.224c5.632 3.072 8.192 8.192 8.192 14.336s-3.072 11.264-8.192 14.336l-90.624 52.224c-2.56 1.536-5.632 2.048-8.192 2.048s-6.144-0.512-8.192-2.048c-5.632-3.072-8.192-8.192-8.192-14.336v-29.184H424.448c-61.952 0-112.128-50.176-112.128-112.128 0.512-11.776 10.752-22.016 23.552-22.016zM798.72 178.688h-131.072v-1.024c0-41.472-33.792-75.264-75.264-75.264H431.616c-41.472 0-75.264 33.792-75.264 75.264v1.024H225.28c-31.744 0-57.344 26.112-57.344 57.344 0 31.744 26.112 57.344 57.344 57.344H798.72c31.744 0 57.344-26.112 57.344-57.344 0.512-31.232-25.6-57.344-57.344-57.344z" p-id="960"></path></svg>