<svg width="1024" height="1025" xmlns="http://www.w3.org/2000/svg" class="icon">
 <g>
  <title>background</title>
  <rect fill="none" id="canvas_background" height="1027" width="1026" y="-1" x="-1"/>
 </g>
 <g>
  <title>Layer 1</title>
  <path stroke="null" id="svg_1" fill="#f1ba68" d="m799.499986,900.999992l-548.99999,0a91.499998,96 0 0 1 -91.499998,-96l0,-575.999998a91.499998,96 0 0 1 91.499998,-96l548.99999,0a91.499998,96 0 0 1 91.499998,96l0,575.999998a91.499998,96 0 0 1 -91.499998,96zm-548.99999,-729.599997a54.899999,57.6 0 0 0 -54.899999,57.6l0,575.999998a54.899999,57.6 0 0 0 54.899999,57.6l548.99999,0a54.899999,57.6 0 0 0 54.899999,-57.6l0,-575.999998a54.899999,57.6 0 0 0 -54.899999,-57.6l-548.99999,0z"/>
  <path stroke="null" id="svg_2" fill="#f1ba68" d="m677.532116,418.66104a128.165215,135.019387 0 0 1 -17.927872,69.518911a174.701394,184.044284 0 0 1 -47.680511,55.052548a142.66009,150.289437 0 0 0 -41.577406,46.613836a82.01048,86.396334 0 0 0 -11.824767,32.147473l0,20.092171l-53.783617,0l0,-28.932726a96.505355,101.666384 0 0 1 13.350543,-51.034114a203.309701,214.18254 0 0 1 46.154735,-53.847018a108.711566,114.525373 0 0 0 32.804192,-40.184341a99.556908,104.881131 0 0 0 8.773214,-40.184341a73.237266,77.153936 0 0 0 -17.164984,-60.276512a68.659937,72.331815 0 0 0 -50.732064,-18.88664a73.61871,77.555779 0 0 0 -55.309393,24.512448a107.18579,112.917999 0 0 0 -22.505201,80.368683l-68.659937,0a152.577637,160.737366 0 0 1 44.628959,-120.553024a146.855975,154.709715 0 0 1 101.464128,-40.184341a149.14464,157.120775 0 0 1 102.989905,34.558534a108.711566,114.525373 0 0 1 37.000077,91.218455zm-114.433228,377.330966l-64.464052,0l0,-69.518911l65.608384,0l-1.144332,69.518911z"/>
 </g>
</svg>
