<?xml version="1.0" standalone="no"?><!DOCTYPE svg PUBLIC "-//W3C//DTD SVG 1.1//EN" "http://www.w3.org/Graphics/SVG/1.1/DTD/svg11.dtd"><svg t="1557968824458" class="icon" style="" viewBox="0 0 1024 1024" version="1.1" xmlns="http://www.w3.org/2000/svg" p-id="1213" xmlns:xlink="http://www.w3.org/1999/xlink" width="200" height="200"><defs><style type="text/css"></style></defs><path d="M742.6048 177.7664c16.0768-9.216 29.0816-1.8432 29.184 16.5888l1.2288 433.2544c0.1024 18.432-12.9024 40.8576-28.9792 50.176l-276.6848 159.744-1.4336-500.0192 276.6848-159.744z" fill="#DE8BFF" p-id="1214"></path><path d="M467.3536 837.5296l-86.6304-50.2784-1.4336-500.0192 86.6304 50.2784z" fill="#8146A1" p-id="1215"></path><path d="M676.6592 125.44c-5.3248-3.072-12.5952-2.6624-20.6848 2.048l-276.6848 159.744 86.6304 50.2784 276.6848-159.744c8.0896-4.7104 15.36-5.12 20.6848-2.048l-86.6304-50.2784z" fill="#BF74E0" p-id="1216"></path><path d="M467.3536 840.6016c-0.512 0-1.024-0.1024-1.536-0.4096-0.9216-0.512-1.536-1.536-1.536-2.6624L462.848 337.5104c0-1.1264 0.6144-2.1504 1.536-2.6624l276.6848-159.744c5.0176-2.9696 9.9328-4.4032 14.5408-4.4032 11.5712 0 19.1488 9.3184 19.1488 23.6544l1.2288 433.2544c0.1024 19.3536-13.6192 43.1104-30.5152 52.8384l-276.6848 159.744c-0.4096 0.3072-0.9216 0.4096-1.4336 0.4096z m1.6384-501.248l1.4336 492.9536 272.0768-157.0816c15.1552-8.8064 27.4432-30.1056 27.4432-47.5136l-1.2288-433.2544c0-10.9568-4.9152-17.5104-13.0048-17.5104-3.4816 0-7.4752 1.2288-11.4688 3.584L468.992 339.3536z" fill="#421762" p-id="1217"></path><path d="M467.3536 840.6016c-0.512 0-1.1264-0.1024-1.536-0.4096l-86.6304-50.3808c-0.9216-0.512-1.536-1.536-1.536-2.6624l-1.4336-500.0192c0-1.1264 0.6144-2.1504 1.536-2.6624s2.1504-0.512 3.072 0l86.6304 50.2784c0.9216 0.512 1.536 1.536 1.536 2.6624l1.4336 499.712v0.4096c0 1.7408-1.4336 3.072-3.072 3.072z m-83.5584-55.0912l80.4864 46.7968-1.4336-492.9536-80.4864-46.7968 1.4336 492.9536z" fill="#421762" p-id="1218"></path><path d="M465.92 340.5824c-0.512 0-1.024-0.1024-1.536-0.4096l-86.6304-50.2784c-0.9216-0.512-1.536-1.536-1.536-2.6624s0.6144-2.1504 1.536-2.6624l276.6848-159.744c5.0176-2.9696 9.9328-4.4032 14.5408-4.4032 3.3792 0 6.4512 0.8192 9.216 2.3552l86.6304 50.2784c1.4336 0.8192 1.9456 2.7648 1.1264 4.1984-0.8192 1.4336-2.7648 1.9456-4.1984 1.1264-4.5056-2.56-10.8544-1.8432-17.6128 2.048l-276.6848 159.744c-0.512 0.3072-1.024 0.4096-1.536 0.4096z m-80.4864-53.3504l80.4864 46.7968L741.0688 175.104c2.9696-1.7408 5.9392-2.9696 8.704-3.6864L675.1232 128c-4.4032-2.56-10.8544-1.8432-17.6128 2.048L385.4336 287.232z" fill="#421762" p-id="1219"></path><path d="M337.8176 878.8992l-1.2288-433.2544-86.6304-50.3808 1.2288 433.2544c0 9.1136 3.2768 15.5648 8.4992 18.6368l86.6304 50.2784c-5.2224-2.9696-8.4992-9.4208-8.4992-18.5344z" fill="#8146A1" p-id="1220"></path><path d="M423.5264 361.984l1.4336 500.0192-57.9584 33.4848c-16.0768 9.216-29.0816 1.8432-29.184-16.5888l-1.2288-433.2544c-0.1024-18.432 12.9024-40.8576 28.9792-50.176l57.9584-33.4848z" fill="#DE8BFF" p-id="1221"></path><path d="M336.896 311.7056L278.9376 345.088c-16.0768 9.216-28.9792 31.744-28.9792 50.176l86.6304 50.2784c-0.1024-18.432 12.9024-40.8576 28.9792-50.176l57.9584-33.4848-86.6304-50.176z" fill="#BF74E0" p-id="1222"></path><path d="M353.9968 902.5536c-11.5712 0-19.1488-9.3184-19.1488-23.6544l-1.2288-433.2544c-0.1024-19.3536 13.6192-43.1104 30.5152-52.8384l57.9584-33.4848c0.9216-0.512 2.1504-0.512 3.072 0 0.9216 0.512 1.536 1.536 1.536 2.6624l1.4336 500.0192c0 1.1264-0.6144 2.1504-1.536 2.6624L368.64 898.1504c-5.2224 2.9696-10.0352 4.4032-14.6432 4.4032z m66.4576-535.2448l-53.3504 30.8224c-15.1552 8.8064-27.4432 30.1056-27.4432 47.5136l1.2288 433.2544c0 10.9568 4.9152 17.5104 13.0048 17.5104 3.4816 0 7.4752-1.2288 11.4688-3.584l56.4224-32.5632-1.3312-492.9536z" fill="#421762" p-id="1223"></path><path d="M346.3168 900.608c-0.512 0-1.024-0.1024-1.536-0.4096L258.1504 849.92c-6.4512-3.6864-9.9328-11.264-10.0352-21.2992l-1.2288-433.2544c-0.1024-19.3536 13.6192-43.1104 30.5152-52.8384l57.9584-33.4848c0.9216-0.512 2.1504-0.512 3.072 0l86.6304 50.2784c0.9216 0.512 1.536 1.536 1.536 2.6624s-0.6144 2.1504-1.536 2.6624l-57.9584 33.4848c-15.1552 8.8064-27.4432 30.1056-27.4432 47.5136l1.2288 433.2544c0 7.68 2.4576 13.4144 6.9632 15.9744 1.4336 0.8192 1.9456 2.7648 1.1264 4.1984-0.6144 1.024-1.6384 1.536-2.6624 1.536zM336.896 315.1872l-56.4224 32.5632c-15.1552 8.8064-27.4432 30.1056-27.4432 47.5136l1.2288 433.2544c0 7.68 2.4576 13.4144 6.9632 15.9744l74.6496 43.4176c-0.7168-2.7648-1.1264-5.7344-1.1264-9.0112l-1.2288-433.2544c-0.1024-19.3536 13.6192-43.1104 30.5152-52.8384l53.3504-30.8224-80.4864-46.7968z" fill="#421762" p-id="1224"></path><path d="M729.4976 567.808l-14.4384-8.3968c2.4576 1.4336 3.8912 4.608 3.8912 9.3184 0 9.728-5.7344 19.5584-14.9504 24.8832l-18.8416 10.8544 14.4384 8.3968 18.8416-10.8544c9.1136-5.3248 14.9504-15.1552 14.9504-24.8832 0-4.608-1.4336-7.8848-3.8912-9.3184z" fill="#999999" p-id="1225"></path><path d="M679.5264 690.176l-14.4384-8.3968-0.3072-118.784 14.4384 8.2944z" fill="#777777" p-id="1226"></path><path d="M730.112 536.3712c-5.8368-3.3792-14.4384-2.7648-25.1904 3.4816l-40.1408 23.1424 14.4384 8.3968 40.1408-23.1424c10.752-6.2464 19.3536-6.8608 25.1904-3.4816l-14.4384-8.3968z" fill="#BABABA" p-id="1227"></path><path d="M646.7584 709.12l-14.4384-8.3968-20.3776-35.7376 14.4384 8.3968z" fill="#777777" p-id="1228"></path><path d="M641.7408 618.496l-14.4384-8.3968c2.3552 1.3312 3.6864 4.4032 3.7888 8.8064 0 9.216-5.7344 19.0464-14.6432 24.1664l-19.0464 10.9568 14.4384 8.3968 19.0464-10.9568c8.9088-5.12 14.6432-14.9504 14.6432-24.1664-0.1024-4.4032-1.4336-7.4752-3.7888-8.8064z" fill="#999999" p-id="1229"></path><path d="M642.3552 586.752c-5.7344-3.3792-14.2336-2.6624-24.7808 3.4816l-40.5504 23.4496 14.4384 8.3968 40.5504-23.4496c10.5472-6.144 19.0464-6.7584 24.7808-3.4816l-14.4384-8.3968z" fill="#BABABA" p-id="1230"></path><path d="M591.7696 740.864l-14.4384-8.3968-0.3072-118.8864 14.4384 8.3968z" fill="#777777" p-id="1231"></path><path d="M699.5968 616.0384c-0.512 0-1.024-0.1024-1.536-0.4096l-14.4384-8.3968c-0.9216-0.512-1.536-1.536-1.536-2.6624s0.6144-2.1504 1.536-2.6624l18.8416-10.8544c8.192-4.7104 13.4144-13.4144 13.4144-22.1184 0-3.3792-0.8192-5.8368-2.3552-6.656-1.4336-0.8192-1.9456-2.7648-1.1264-4.1984 0.8192-1.4336 2.7648-1.9456 4.1984-1.1264l14.4384 8.3968c2.4576 1.4336 5.4272 4.7104 5.4272 11.9808 0 10.9568-6.4512 21.7088-16.4864 27.5456l-18.8416 10.8544c-0.512 0.1024-1.024 0.3072-1.536 0.3072z m-8.3968-11.4688l8.2944 4.8128 17.3056-10.0352c8.192-4.7104 13.4144-13.4144 13.4144-22.1184 0-3.3792-0.8192-5.8368-2.3552-6.7584l-6.0416-3.4816c0 0.6144 0.1024 1.1264 0.1024 1.8432 0 10.9568-6.4512 21.7088-16.4864 27.5456l-14.2336 8.192z" fill="#343434" p-id="1232"></path><path d="M679.5264 693.248c-0.512 0-1.024-0.1024-1.536-0.4096l-14.4384-8.3968c-0.9216-0.512-1.536-1.536-1.536-2.6624l-0.3072-118.8864c0-1.1264 0.6144-2.1504 1.536-2.6624s2.1504-0.512 3.072 0l14.4384 8.3968c0.9216 0.512 1.536 1.536 1.536 2.6624l0.3072 118.4768v0.4096c0 1.7408-1.3312 3.072-3.072 3.072z m-11.3664-13.2096l8.2944 4.8128-0.3072-111.7184-8.2944-4.8128 0.3072 111.7184z" fill="#343434" p-id="1233"></path><path d="M679.2192 574.3616c-0.512 0-1.024-0.1024-1.536-0.4096l-14.4384-8.3968c-0.9216-0.512-1.536-1.536-1.536-2.6624s0.6144-2.1504 1.536-2.6624l40.1408-23.1424c6.7584-3.8912 13.1072-5.9392 18.6368-5.9392 3.584 0 6.8608 0.8192 9.6256 2.4576l14.4384 8.3968c1.4336 0.8192 1.9456 2.7648 1.1264 4.1984-0.8192 1.4336-2.7648 1.9456-4.1984 1.1264-1.8432-1.1264-4.096-1.6384-6.5536-1.6384-4.5056 0-9.728 1.7408-15.5648 5.12l-40.1408 23.1424c-0.512 0.3072-1.024 0.4096-1.536 0.4096z m-8.2944-11.3664l8.2944 4.8128 38.6048-22.2208c4.608-2.6624 8.9088-4.4032 12.9024-5.3248l-2.1504-1.2288c-1.8432-1.1264-4.096-1.6384-6.5536-1.6384-4.5056 0-9.728 1.7408-15.5648 5.12l-35.5328 20.48zM646.7584 712.192c-0.512 0-1.024-0.1024-1.536-0.4096l-14.4384-8.3968c-0.512-0.3072-0.8192-0.6144-1.1264-1.1264L609.28 666.5216c-0.7168-1.2288-0.512-2.7648 0.512-3.6864 1.024-1.024 2.4576-1.1264 3.6864-0.512l14.4384 8.3968c0.512 0.3072 0.8192 0.6144 1.1264 1.1264l20.1728 35.4304c0.4096 0.512 0.6144 1.1264 0.6144 1.8432 0 1.7408-1.4336 3.072-3.072 3.072z m-12.1856-13.6192l3.8912 2.2528-14.336-25.088-3.8912-2.2528 14.336 25.088z" fill="#343434" p-id="1234"></path><path d="M611.84 665.4976c-0.512 0-1.024-0.1024-1.536-0.4096l-14.4384-8.3968c-0.9216-0.512-1.536-1.536-1.536-2.6624s0.6144-2.1504 1.536-2.6624l19.0464-10.9568c7.68-4.5056 13.1072-13.312 13.1072-21.504 0-3.1744-0.8192-5.3248-2.2528-6.144-1.4336-0.8192-1.9456-2.7648-1.1264-4.1984 0.8192-1.4336 2.7648-1.9456 4.1984-1.1264l14.4384 8.3968c2.3552 1.4336 5.2224 4.5056 5.2224 11.4688 0 10.4448-6.4512 21.1968-16.1792 26.8288L613.376 665.088c-0.512 0.3072-1.024 0.4096-1.536 0.4096z m-8.3968-11.4688l8.2944 4.8128 17.5104-10.1376c7.68-4.5056 13.1072-13.312 13.1072-21.504 0-3.1744-0.8192-5.3248-2.2528-6.144l-6.144-3.584v1.3312c0 10.4448-6.4512 21.1968-16.1792 26.8288l-14.336 8.3968z" fill="#343434" p-id="1235"></path><path d="M591.4624 625.0496c-0.512 0-1.024-0.1024-1.536-0.4096l-14.4384-8.3968c-0.9216-0.512-1.536-1.536-1.536-2.6624s0.6144-2.1504 1.536-2.6624l40.5504-23.4496c6.7584-3.8912 12.9024-5.8368 18.432-5.8368 3.4816 0 6.7584 0.8192 9.4208 2.4576l14.4384 8.3968c1.4336 0.8192 1.9456 2.7648 1.1264 4.1984-0.8192 1.4336-2.7648 1.9456-4.1984 1.1264-1.8432-1.024-3.9936-1.536-6.3488-1.536-4.4032 0-9.5232 1.7408-15.36 5.0176L592.9984 624.64c-0.512 0.3072-1.024 0.4096-1.536 0.4096z m-8.2944-11.4688l8.2944 4.8128 39.0144-22.528c4.5056-2.56 8.704-4.3008 12.6976-5.2224l-2.2528-1.3312c-1.8432-1.024-3.9936-1.536-6.3488-1.536-4.4032 0-9.5232 1.7408-15.36 5.0176l-36.0448 20.7872z" fill="#343434" p-id="1236"></path><path d="M591.7696 743.936c-0.512 0-1.024-0.1024-1.536-0.4096l-14.4384-8.3968c-0.9216-0.512-1.536-1.536-1.536-2.6624l-0.3072-118.8864c0-1.1264 0.6144-2.1504 1.536-2.6624s2.1504-0.512 3.072 0l14.4384 8.3968c0.9216 0.512 1.536 1.536 1.536 2.6624l0.3072 118.4768v0.4096c0 1.7408-1.3312 3.072-3.072 3.072z m-11.3664-13.2096l8.2944 4.8128-0.3072-111.7184-8.2944-4.8128 0.3072 111.7184z" fill="#343434" p-id="1237"></path><path d="M719.2576 548.1472c21.4016-12.288 34.2016-2.8672 34.2016 17.3056 0.1024 20.1728-12.6976 44.4416-33.9968 56.7296l-19.8656 11.4688 0.1024 44.7488-20.1728 11.776-0.3072-118.8864 40.0384-23.1424z m-0.8192 53.8624c9.1136-5.3248 14.9504-15.1552 14.9504-24.8832 0-9.6256-5.8368-13.0048-15.0528-7.68l-18.8416 10.8544 0.1024 32.5632 18.8416-10.8544" fill="#FFFFFF" p-id="1238"></path><path d="M679.5264 693.248c-0.512 0-1.024-0.1024-1.536-0.4096-0.9216-0.512-1.536-1.536-1.536-2.6624l-0.3072-118.784c0-1.1264 0.6144-2.1504 1.536-2.6624l40.1408-23.1424c6.7584-3.8912 13.1072-5.9392 18.6368-5.9392 12.3904 0 20.1728 9.9328 20.1728 25.9072 0.1024 22.8352-14.5408 47.3088-35.5328 59.4944l-18.3296 10.6496 0.1024 43.008c0 1.1264-0.6144 2.1504-1.536 2.6624l-20.1728 11.6736c-0.512 0.1024-1.1264 0.2048-1.6384 0.2048z m2.7648-120.1152l0.3072 111.8208 14.0288-8.0896-0.1024-43.008c0-1.1264 0.6144-2.1504 1.536-2.6624l19.8656-11.4688c19.1488-11.0592 32.5632-33.3824 32.4608-54.0672 0-5.9392-1.4336-19.7632-14.0288-19.7632-4.5056 0-9.728 1.7408-15.5648 5.12l-38.5024 22.1184z m17.3056 42.9056c-0.512 0-1.024-0.1024-1.536-0.4096-0.9216-0.512-1.536-1.536-1.536-2.6624l-0.1024-32.5632c0-1.1264 0.6144-2.1504 1.536-2.6624l18.8416-10.8544c3.3792-1.9456 6.4512-2.8672 9.216-2.8672 5.0176 0 10.3424 3.4816 10.3424 13.312 0 10.9568-6.4512 21.7088-16.4864 27.5456l-18.8416 10.8544c-0.4096 0.1024-0.9216 0.3072-1.4336 0.3072z m2.9696-33.8944l0.1024 25.4976 14.336-8.2944c8.192-4.7104 13.4144-13.4144 13.4144-22.1184 0-4.7104-1.4336-7.168-4.1984-7.168-1.6384 0-3.7888 0.7168-6.144 2.048l-17.5104 10.0352z" fill="#343434" p-id="1239"></path><path d="M646.8608 657.7152l23.2448 37.888-23.3472 13.5168-20.3776-35.7376-14.5408 8.3968 0.1024 47.4112-20.1728 11.6736-0.3072-118.8864 40.5504-23.4496c21.0944-12.1856 33.5872-2.8672 33.6896 16.9984 0 16.7936-8.8064 32.256-18.8416 42.1888z m-16.0768-6.2464c8.9088-5.12 14.6432-14.9504 14.6432-24.1664 0-9.216-5.8368-12.288-14.7456-7.2704l-19.0464 10.9568 0.1024 31.3344 19.0464-10.8544" fill="#FFFFFF" p-id="1240"></path><path d="M591.7696 743.936c-0.512 0-1.024-0.1024-1.536-0.4096-0.9216-0.512-1.536-1.536-1.536-2.6624l-0.3072-118.8864c0-1.1264 0.6144-2.1504 1.536-2.6624l40.5504-23.4496c6.7584-3.8912 12.9024-5.8368 18.432-5.8368 12.1856 0 19.7632 9.8304 19.8656 25.4976 0 14.7456-6.656 30.4128-18.0224 42.5984l22.016 35.84c0.4096 0.7168 0.512 1.536 0.4096 2.3552-0.2048 0.8192-0.7168 1.536-1.4336 1.9456l-23.3472 13.5168c-0.7168 0.4096-1.536 0.512-2.3552 0.3072-0.8192-0.2048-1.4336-0.7168-1.8432-1.4336l-18.8416-33.0752-10.3424 5.9392 0.1024 45.6704c0 1.1264-0.6144 2.1504-1.536 2.6624l-20.1728 11.6736c-0.512 0.3072-1.1264 0.4096-1.6384 0.4096z m2.7648-120.2176l0.3072 111.8208 14.0288-8.0896-0.1024-45.6704c0-1.1264 0.6144-2.1504 1.536-2.6624l14.5408-8.3968c0.7168-0.4096 1.536-0.512 2.3552-0.3072 0.8192 0.2048 1.4336 0.7168 1.8432 1.4336l18.8416 33.0752 18.0224-10.3424-21.6064-35.2256c-0.7168-1.2288-0.512-2.7648 0.4096-3.7888 11.264-11.1616 17.92-26.112 17.92-39.936 0-5.8368-1.4336-19.456-13.7216-19.456-4.4032 0-9.5232 1.7408-15.36 5.0176l-39.0144 22.528z m17.3056 41.7792c-0.512 0-1.024-0.1024-1.536-0.4096-0.9216-0.512-1.536-1.536-1.536-2.6624l-0.1024-31.3344c0-1.1264 0.6144-2.1504 1.536-2.6624l19.0464-10.9568c3.2768-1.9456 6.3488-2.8672 9.1136-2.8672 4.9152 0 10.24 3.3792 10.24 12.6976 0 10.4448-6.4512 21.1968-16.1792 26.8288L613.376 665.088c-0.512 0.3072-1.024 0.4096-1.536 0.4096z m2.9696-32.6656l0.1024 24.2688 14.4384-8.2944c7.68-4.5056 13.1072-13.312 13.1072-21.504 0-4.4032-1.4336-6.5536-4.096-6.5536-1.1264 0-3.072 0.3072-6.0416 2.048l-17.5104 10.0352z" fill="#343434" p-id="1241"></path></svg>