<svg width="24" height="24" viewBox="0 0 24 24" xmlns="http://www.w3.org/2000/svg" xmlns:xlink="http://www.w3.org/1999/xlink"><defs><path d="M6 2h14a1 1 0 0 1 1 1v18a1 1 0 0 1-1 1H6a1 1 0 0 1-1-1V3a1 1 0 0 1 1-1z" id="a"/></defs><g fill="none" fill-rule="evenodd"><path d="M0 0h24v24H0z"/><use fill="#FFF" xlink:href="#a"/><path stroke="#DADADA" d="M6 2.5a.5.5 0 0 0-.5.5v18a.5.5 0 0 0 .5.5h14a.5.5 0 0 0 .5-.5V3a.5.5 0 0 0-.5-.5H6z"/><path d="M15 7h3v2h-3V7zm-5 0h4v2h-4V7zm5 3h3v2h-3v-2zm-5 0h4v2h-4v-2zm5 3h3v2h-3v-2zm-5 0h4v2h-4v-2zm5 3h3v2h-3v-2zm-5 0h4v2h-4v-2z" fill="#E5E5E5"/><path d="M3.45 6.955l9-.9a.5.5 0 0 1 .55.497v12.896a.5.5 0 0 1-.55.497l-9-.9a.5.5 0 0 1-.45-.497V7.452a.5.5 0 0 1 .45-.497z" fill="#269758"/><path fill="#FFF" d="M6 11h1v1H6z"/><path fill="#FFF" d="M6 11h1v1H6z"/><path fill="#FFF" opacity=".5" d="M6 10h1v1H6z"/><path fill="#FFF" opacity=".7" d="M5 10h1v1H5z"/><path fill="#FFF" d="M7 12h1v2H7zM6 14h1v1H6z"/><path fill="#FFF" opacity=".5" d="M6 15h1v1H6z"/><path fill="#FFF" opacity=".7" d="M5 15h1v1H5z"/><path fill="#FFF" d="M8 11h1v1H8z"/><path fill="#FFF" opacity=".7" d="M8 10h1v1H8z"/><path fill="#FFF" d="M9 10h1v1H9zM8 14h1v1H8z"/><path fill="#FFF" opacity=".7" d="M8 15h1v1H8z"/><path fill="#FFF" d="M9 15h1v1H9z"/></g></svg>
