<svg width="1024" height="1024" xmlns="http://www.w3.org/2000/svg" class="icon">
 <g>
  <title>background</title>
  <rect fill="none" id="canvas_background" height="402" width="582" y="-1" x="-1"/>
 </g>
 <g>
  <title>Layer 1</title>
  <path stroke="null" id="svg_1" fill="#6BCB5A" d="m497.240002,583.572169l-39.591528,-75.782287l-114.259762,128.661483l108.008468,0l0,1.347241l238.243759,0l-89.254586,-168.405083l-103.14635,114.178646zm-258.039523,-404.172198l371.95199,0l210.807524,202.086099l0,427.07529c0,8.420254 -3.820235,18.187749 -11.113411,25.260762c-7.293176,7.073013 -17.364705,10.777925 -26.047058,10.777925l-545.599045,0c-10.071529,0 -18.753882,-3.704912 -26.047058,-10.777925c-7.293176,-6.062583 -11.113411,-15.493268 -11.113411,-25.260762l0,-593.122701c0,-8.420254 4.862118,-18.187749 11.113411,-25.260762s16.322823,-10.777925 26.047058,-10.777925zm137.875761,313.907074c21.184941,0 38.549646,-16.840508 38.549646,-37.385928s-17.364705,-37.385928 -38.549646,-37.385928s-38.549646,17.177318 -38.549646,37.385928c0,20.54542 17.364705,37.385928 38.549646,37.385928z"/>
  <path stroke="null" id="svg_2" fill="#C3E2BA" d="m831.215995,367.984003l-162.945592,0c-8.504467,0 -18.369649,-3.704165 -24.152687,-10.775752c-7.143752,-6.06136 -10.885718,-15.490143 -10.885718,-23.908699l0,-161.299535l197.983997,195.983986z"/>
 </g>
</svg>
