<?xml version="1.0"?>
<svg width="1024" height="1024" xmlns="http://www.w3.org/2000/svg" xmlns:svg="http://www.w3.org/2000/svg" class="icon">
 <g>
  <g stroke="null" id="svg_4">
   <path id="svg_1" fill="#FC4949" d="m176.986648,95.999993c-16.58423,0 -33.168469,16.382778 -33.168469,32.765549l0,790.46891c0,16.38277 16.584239,32.765549 33.168469,32.765549l682.02669,0c16.58423,0 33.168469,-16.382778 33.168469,-32.765549l0,-636.88039l-190.718707,-186.354069l-524.476452,0z"/>
   <path id="svg_2" fill="#FC8D8D" d="m701.4631,95.999993l0,153.58852c0,16.38277 16.58423,32.765549 33.168469,32.765549l155.47721,0l-188.645679,-186.354069z"/>
   <path id="svg_3" fill="#FFFFFF" d="m280.638121,470.755977s-4.146058,-10.239231 10.365152,-12.287078l124.381761,-22.526317s10.365152,-6.143539 14.51121,8.191385c4.146058,14.334932 29.022411,96.248808 107.797531,94.200953c78.775119,-2.047846 41.460584,-67.578944 41.460584,-67.578944s-2.073029,-8.191385 16.584239,-14.334932c18.657268,-4.095693 95.359349,-16.38277 95.359349,-16.38277s18.657268,-8.191385 24.876354,14.334924c4.146066,22.526317 14.51121,67.578952 -68.409967,92.153115c-72.556033,20.478471 26.949383,22.526317 95.359349,86.009568c31.09544,30.717702 37.314535,55.291866 35.241506,67.578952c-2.073029,16.38277 -18.657268,12.287078 -24.876354,14.334924c-2.073029,0 -4.146066,0 -8.292124,2.047846c-24.876345,4.095693 -101.578436,16.382778 -101.578436,16.382778s-14.51121,4.095693 -20.730296,-22.526317c-6.219086,-26.62201 -49.752708,-86.009568 -122.308741,-88.057415c-72.556024,-2.047846 -76.702082,61.435405 -78.775119,79.866029c-2.073029,18.430616 -8.292115,16.38277 -20.730288,18.430616s-91.2133,20.478471 -91.2133,20.478471s-14.511201,6.143539 -16.58423,-12.287078c0,-18.430625 -14.51121,-61.435413 87.067234,-104.440193c68.409967,-28.669856 58.044823,-30.717702 33.168469,-43.004788c-26.949383,-12.287078 -122.308732,-34.813395 -132.673884,-110.583732z"/>
  </g>
 </g>
</svg>
